<svg xmlns="http://www.w3.org/2000/svg" viewBox="0 0 96 96" role="img" aria-labelledby="title desc">
  <title id="title">Find scanned colonies</title>
  <desc id="desc">A scan lens locating coral colonies.</desc>
  <defs>
    <linearGradient id="a" x1="20" x2="78" y1="16" y2="82" gradientUnits="userSpaceOnUse">
      <stop stop-color="#fff"/>
      <stop offset=".5" stop-color="#eafcff"/>
      <stop offset="1" stop-color="#bdf9ee"/>
    </linearGradient>
    <filter id="b" width="150%" height="150%" x="-25%" y="-25%" color-interpolation-filters="sRGB">
      <feDropShadow dx="0" dy="4" flood-color="#041923" flood-opacity=".3" stdDeviation="4"/>
      <feDropShadow dx="0" dy="0" flood-color="#d9fff8" flood-opacity=".55" stdDeviation="3"/>
    </filter>
  </defs>
  <g fill="none" stroke="url(#a)" stroke-linecap="round" stroke-linejoin="round" filter="url(#b)">
    <path stroke-width="5" d="M29 23h-6a8 8 0 0 0-8 8v6m0 22v6a8 8 0 0 0 8 8h6m38 0h6a8 8 0 0 0 8-8v-6m0-22v-6a8 8 0 0 0-8-8h-6"/>
    <circle cx="47" cy="47" r="12" stroke-width="5"/>
    <path stroke-width="5" d="m56 56 13 13"/>
    <path stroke-width="4" d="M27 47c7-9 16-14 28-14"/>
    <path stroke-width="4" d="M29 58c5 4 12 6 20 5"/>
  </g>
  <g fill="#fff" opacity=".95">
    <circle cx="32" cy="33" r="5"/>
    <circle cx="61" cy="31" r="3"/>
    <circle cx="38" cy="64" r="3.4"/>
  </g>
</svg>
